<?xml version="1.0" standalone="no"?>
<!DOCTYPE svg PUBLIC "-//W3C//DTD SVG 20010904//EN"
 "http://www.w3.org/TR/2001/REC-SVG-20010904/DTD/svg10.dtd">
<svg version="1.0" xmlns="http://www.w3.org/2000/svg"
 width="348.000000pt" height="348.000000pt" viewBox="0 0 348.000000 348.000000"
 preserveAspectRatio="xMidYMid meet">

<g transform="translate(0.000000,348.000000) scale(0.100000,-0.100000)"
fill="#000000" stroke="none">
<path d="M1583 3469 c-440 -51 -834 -352 -1006 -769 -186 -449 -104 -901 286
-1575 184 -318 538 -806 770 -1060 53 -59 56 -60 107 -60 51 0 54 2 102 55
161 178 414 508 582 758 399 596 593 1090 573 1462 -39 736 -680 1274 -1414
1189z m312 -634 c221 -58 402 -239 460 -460 19 -76 19 -233 0 -310 -55 -217
-243 -405 -460 -460 -76 -19 -234 -19 -310 0 -217 55 -405 243 -460 460 -19
77 -19 234 0 310 30 113 82 203 170 290 86 87 165 134 277 166 81 23 242 25
323 4z"/>
</g>
</svg>
